<svg width="40" height="41" viewBox="0 0 40 41" fill="none" xmlns="http://www.w3.org/2000/svg">
    <path
        d="M20.044 40.0235H19.956C8.95238 40.0235 0 31.0685 0 20.0616V19.9736C0 8.96673 8.95238 0.0117188 19.956 0.0117188H20.044C31.0476 0.0117188 40 8.96673 40 19.9736V20.0616C40 31.0685 31.0476 40.0235 20.044 40.0235ZM19.956 1.36608C9.69841 1.36608 1.35396 9.71298 1.35396 19.9736V20.0616C1.35396 30.3223 9.69841 38.6691 19.956 38.6691H20.044C30.3016 38.6691 38.646 30.3223 38.646 20.0616V19.9736C38.646 9.71298 30.3016 1.36608 20.044 1.36608H19.956Z"
        fill="black" />
    <path
        d="M18.5065 20.7439C18.1707 20.3226 17.7862 20.0003 17.3556 19.7823C17.7361 19.5507 18.0638 19.2663 18.3345 18.9277C18.7908 18.3561 19.0224 17.6397 19.0224 16.7973C19.0224 16.0944 18.8369 15.4483 18.4699 14.8781C18.1044 14.308 17.5601 13.8502 16.852 13.517C16.1587 13.1906 15.3233 13.0254 14.3715 13.0254H8.95703V27.0118H14.6206C15.5481 27.0118 16.3767 26.8425 17.0821 26.5094C17.8011 26.1708 18.3616 25.6968 18.7462 25.1022C19.132 24.5049 19.3284 23.8264 19.3284 23.0855C19.3284 22.2174 19.0521 21.4305 18.5065 20.7452V20.7439ZM15.6307 18.195C15.2963 18.4658 14.8075 18.604 14.1806 18.604H11.8383V15.5052H14.1806C14.8048 15.5052 15.2908 15.6474 15.6253 15.9291C15.9462 16.1986 16.1019 16.5711 16.1019 17.0641C16.1019 17.5571 15.9475 17.939 15.6307 18.195ZM11.8383 21.0852H14.3526C15.0106 21.0852 15.517 21.245 15.9001 21.5741C16.2671 21.8897 16.4458 22.3081 16.4458 22.8553C16.4458 23.4025 16.2806 23.7885 15.9394 24.0769C15.586 24.3763 15.0783 24.528 14.4284 24.528H11.8383V21.0852Z"
        fill="black" />
    <path
        d="M30.3894 18.4052C29.9534 17.6169 29.336 16.9953 28.5534 16.5592C27.7722 16.1231 26.8691 15.9023 25.8726 15.9023C24.8761 15.9023 23.9053 16.1299 23.1051 16.5782C22.3035 17.0278 21.6726 17.6739 21.2312 18.5014C20.7898 19.3275 20.5664 20.2972 20.5664 21.3834C20.5664 22.4696 20.7966 23.4407 21.2515 24.2655C21.7064 25.0916 22.3428 25.7417 23.1443 26.1968C23.9445 26.6519 24.8625 26.8821 25.8739 26.8821C27.1155 26.8821 28.1702 26.5666 29.0097 25.9449C29.8491 25.3233 30.4368 24.5133 30.7577 23.5396L30.7807 23.4705H28.3246L28.3097 23.5003C27.8372 24.4578 27.018 24.9427 25.8726 24.9427C25.0751 24.9427 24.3927 24.6894 23.8443 24.1923C23.3095 23.7061 23.0022 23.0561 22.9304 22.2583H30.9621L30.9689 22.2136C31.0203 21.8927 31.046 21.5297 31.046 21.1356C31.046 20.1117 30.8254 19.1934 30.3894 18.4052ZM23.8823 18.546C24.4049 18.0788 25.0426 17.8431 25.7764 17.8431C26.5875 17.8431 27.2766 18.0829 27.825 18.5569C28.3584 19.0174 28.6414 19.6363 28.6658 20.3948H22.9534C23.0618 19.6241 23.3745 19.0025 23.8836 18.5474L23.8823 18.546Z"
        fill="black" />
    <path d="M28.4823 13.3477H23.1328V14.6153H28.4823V13.3477Z" fill="black" />
</svg>