<svg width="40" height="41" viewBox="0 0 40 41" fill="none" xmlns="http://www.w3.org/2000/svg">
    <g id="Group">
        <path id="Vector"
            d="M20.044 40.0118H19.956C8.95238 40.0118 0 31.0568 0 20.0499V19.9619C0 8.95501 8.95238 0 19.956 0H20.044C31.0476 0 40 8.95501 40 19.9619V20.0499C40 31.0568 31.0476 40.0118 20.044 40.0118ZM19.956 1.35436C9.69841 1.35436 1.35396 9.70126 1.35396 19.9619V20.0499C1.35396 30.3105 9.69841 38.6574 19.956 38.6574H20.044C30.3016 38.6574 38.646 30.3105 38.646 20.0499V19.9619C38.646 9.70126 30.3016 1.35436 20.044 1.35436H19.956Z"
            fill="#1877F2" />
        <path id="Vector_2"
            d="M22.6895 15.5189V19.7295H27.8968L27.0723 25.4016H22.6895V38.4698C21.8108 38.5917 20.9118 38.6553 19.9992 38.6553C18.9458 38.6553 17.9114 38.5714 16.9041 38.4089V25.4016H12.1016V19.7295H16.9041V14.5776C16.9041 11.3813 19.4942 8.78906 22.6909 8.78906V8.79176C22.7004 8.79176 22.7085 8.78906 22.718 8.78906H27.8982V13.6945H24.5133C23.5073 13.6945 22.6909 14.5112 22.6909 15.5175L22.6895 15.5189Z"
            fill="#1877F2" />
    </g>
</svg>