<svg width="40" height="41" viewBox="0 0 40 41" fill="none" xmlns="http://www.w3.org/2000/svg">
    <path
        d="M20.044 40.0118H19.956C8.95238 40.0118 0 31.0568 0 20.0499V19.9619C0 8.95501 8.95238 0 19.956 0H20.044C31.0476 0 40 8.95501 40 19.9619V20.0499C40 31.0568 31.0476 40.0118 20.044 40.0118ZM19.956 1.35436C9.69841 1.35436 1.35396 9.70126 1.35396 19.9619V20.0499C1.35396 30.3105 9.69841 38.6574 19.956 38.6574H20.044C30.3016 38.6574 38.646 30.3105 38.646 20.0499V19.9619C38.646 9.70126 30.3016 1.35436 20.044 1.35436H19.956Z"
        fill="url(#paint0_linear_231_17946)" />
    <path
        d="M25.9807 8.54102H14.0225C10.7189 8.54102 8.03125 11.2294 8.03125 14.534V25.4773C8.03125 28.7819 10.7189 31.4703 14.0225 31.4703H25.9807C29.2843 31.4703 31.9719 28.7819 31.9719 25.4773V14.534C31.9719 11.2294 29.2843 8.54102 25.9807 8.54102ZM10.1448 14.534C10.1448 12.3955 11.8846 10.6552 14.0225 10.6552H25.9807C28.1186 10.6552 29.8584 12.3955 29.8584 14.534V25.4773C29.8584 27.6158 28.1186 29.3561 25.9807 29.3561H14.0225C11.8846 29.3561 10.1448 27.6158 10.1448 25.4773V14.534Z"
        fill="url(#paint1_linear_231_17946)" />
    <path
        d="M20.0026 25.5788C23.0747 25.5788 25.5755 23.0786 25.5755 20.0042C25.5755 16.9298 23.0761 14.4297 20.0026 14.4297C16.9291 14.4297 14.4297 16.9298 14.4297 20.0042C14.4297 23.0786 16.9291 25.5788 20.0026 25.5788ZM20.0026 16.5452C21.9103 16.5452 23.4619 18.0973 23.4619 20.0056C23.4619 21.9139 21.9103 23.466 20.0026 23.466C18.0949 23.466 16.5432 21.9139 16.5432 20.0056C16.5432 18.0973 18.0949 16.5452 20.0026 16.5452Z"
        fill="url(#paint2_linear_231_17946)" />
    <path
        d="M26.0914 15.3301C26.9186 15.3301 27.5929 14.657 27.5929 13.8281C27.5929 12.9993 26.92 12.3262 26.0914 12.3262C25.2628 12.3262 24.5898 12.9993 24.5898 13.8281C24.5898 14.657 25.2628 15.3301 26.0914 15.3301Z"
        fill="url(#paint3_linear_231_17946)" />
    <defs>
        <linearGradient id="paint0_linear_231_17946" x1="5.85181" y1="34.1582" x2="34.1565"
            y2="5.86186" gradientUnits="userSpaceOnUse">
            <stop stop-color="#FAAD4F" />
            <stop offset="0.35" stop-color="#DD2A7B" />
            <stop offset="0.62" stop-color="#9537B0" />
            <stop offset="1" stop-color="#515BD4" />
        </linearGradient>
        <linearGradient id="paint1_linear_231_17946" x1="10.0419" y1="29.967" x2="29.9658"
            y2="10.0502" gradientUnits="userSpaceOnUse">
            <stop stop-color="#FAAD4F" />
            <stop offset="0.35" stop-color="#DD2A7B" />
            <stop offset="0.62" stop-color="#9537B0" />
            <stop offset="1" stop-color="#515BD4" />
        </linearGradient>
        <linearGradient id="paint2_linear_231_17946" x1="16.0639" y1="23.9454" x2="23.9422"
            y2="16.0681" gradientUnits="userSpaceOnUse">
            <stop stop-color="#FAAD4F" />
            <stop offset="0.35" stop-color="#DD2A7B" />
            <stop offset="0.62" stop-color="#9537B0" />
            <stop offset="1" stop-color="#515BD4" />
        </linearGradient>
        <linearGradient id="paint3_linear_231_17946" x1="25.0299" y1="14.89" x2="27.1535"
            y2="12.767" gradientUnits="userSpaceOnUse">
            <stop stop-color="#FAAD4F" />
            <stop offset="0.35" stop-color="#DD2A7B" />
            <stop offset="0.62" stop-color="#9537B0" />
            <stop offset="1" stop-color="#515BD4" />
        </linearGradient>
    </defs>
</svg>