<svg width="40" height="41" viewBox="0 0 40 41" fill="none" xmlns="http://www.w3.org/2000/svg">
    <path
        d="M20.044 40.0118H19.956C8.95239 40.0118 0 31.0568 0 20.0499V19.9619C0 8.95501 8.95239 0 19.956 0H20.044C31.0476 0 40 8.95501 40 19.9619V20.0499C40 31.0568 31.0476 40.0118 20.044 40.0118ZM19.956 1.35436C9.69842 1.35436 1.35396 9.70126 1.35396 19.9619V20.0499C1.35396 30.3105 9.69842 38.6574 19.956 38.6574H20.044C30.3016 38.6574 38.646 30.3105 38.646 20.0499V19.9619C38.646 9.70126 30.3016 1.35436 20.044 1.35436H19.956Z"
        fill="#007EBB" />
    <path
        d="M9.89507 13.5258C9.38599 13.0531 9.13281 12.4681 9.13281 11.7719C9.13281 11.0758 9.38734 10.465 9.89507 9.99093C10.4042 9.51826 11.0595 9.28125 11.8624 9.28125C12.6653 9.28125 13.2949 9.51826 13.8026 9.99093C14.3117 10.4636 14.5649 11.0582 14.5649 11.7719C14.5649 12.4857 14.3103 13.0531 13.8026 13.5258C13.2935 13.9985 12.6477 14.2355 11.8624 14.2355C11.0771 14.2355 10.4042 13.9985 9.89507 13.5258ZM14.137 16.2372V30.7288H9.5593V16.2372H14.137Z"
        fill="#007EBB" />
    <path
        d="M29.3771 17.6682C30.3749 18.7517 30.8732 20.2388 30.8732 22.1321V30.4723H26.5257V22.72C26.5257 21.7651 26.2779 21.0229 25.7837 20.4947C25.2895 19.9665 24.6234 19.7011 23.7893 19.7011C22.9553 19.7011 22.2891 19.9652 21.7949 20.4947C21.3007 21.0229 21.0529 21.7651 21.0529 22.72V30.4723H16.6797V16.196H21.0529V18.0894C21.4957 17.4583 22.0928 16.9599 22.8429 16.5928C23.593 16.2258 24.4365 16.043 25.3748 16.043C27.0456 16.043 28.3806 16.5847 29.3771 17.6682Z"
        fill="#007EBB" />
</svg>