<svg width="135" height="44" viewBox="0 0 135 44" fill="none" xmlns="http://www.w3.org/2000/svg">
    <path
        d="M21.3886 35.8638C19.6267 35.8638 18.3166 35.3555 17.4583 34.3391C16.6225 33.3226 16.2046 32.0125 16.2046 30.4087V21.4977H12.8164C12.8164 20.5264 13.0084 19.8035 13.3924 19.3292C13.7764 18.8548 14.2959 18.6177 14.951 18.6177H16.2385V15.6699C16.2385 14.8115 16.5434 14.1904 17.1533 13.8064C17.7858 13.4224 18.7232 13.2304 19.9656 13.2304V18.6177H24.4719C24.4719 19.6341 24.2686 20.3682 23.862 20.82C23.4554 21.2718 22.8117 21.4977 21.9307 21.4977H19.9994V30.2732C19.9994 31.0864 20.1576 31.6737 20.4738 32.0351C20.79 32.3739 21.3434 32.5433 22.134 32.5433C22.9246 32.5433 23.7039 32.3287 24.4719 31.8995C24.6752 32.0802 24.822 32.3061 24.9124 32.5772C25.0253 32.8482 25.0818 33.1306 25.0818 33.4242C25.0818 34.0567 24.7543 34.6214 24.0992 35.1184C23.4442 35.6153 22.5406 35.8638 21.3886 35.8638ZM33.1543 35.8638C31.9571 35.8638 30.8729 35.6379 29.9016 35.1861C28.9303 34.7344 28.1623 34.0793 27.5976 33.221C27.0329 32.3626 26.7505 31.3574 26.7505 30.2054C26.7505 29.0308 27.0442 28.0144 27.6314 27.156C28.2413 26.2751 29.0658 25.6087 30.1049 25.157C31.1439 24.6826 32.3072 24.4454 33.5947 24.4454C35.6503 24.4454 37.3783 25.1457 38.7787 26.5461L38.9482 26.3767C38.5416 25.9701 38.214 25.6765 37.9656 25.4958V24.5471C37.9656 23.5532 37.6267 22.7739 36.9491 22.2092C36.2714 21.6219 35.3227 21.3282 34.103 21.3282C33.0187 21.3282 32.07 21.5428 31.2569 21.972C30.4437 22.3786 29.7886 22.9885 29.2917 23.8017C28.8399 23.6435 28.4559 23.3951 28.1397 23.0562C27.846 22.7174 27.6992 22.356 27.6992 21.972C27.6992 21.317 28.0042 20.7071 28.614 20.1424C29.2239 19.5777 30.0371 19.1372 31.0536 18.821C32.0926 18.4821 33.2107 18.3127 34.4079 18.3127C36.7119 18.3127 38.4964 18.8661 39.7613 19.973C41.0489 21.0572 41.6926 22.548 41.6926 24.4454V33.221C41.6926 34.1471 41.4103 34.8247 40.8456 35.2539C40.2809 35.6605 39.3773 35.8638 38.135 35.8638V34.4068C38.5416 34.0002 38.8126 33.7066 38.9482 33.5259L38.7787 33.3904C38.0559 34.2035 37.2427 34.8247 36.3392 35.2539C35.4583 35.6605 34.3966 35.8638 33.1543 35.8638ZM34.0352 33.0177C35.2776 33.0177 36.2489 32.7692 36.9491 32.2722C37.6719 31.7753 38.0333 31.0751 38.0333 30.1715C38.0333 29.268 37.6719 28.5678 36.9491 28.0708C36.2489 27.5513 35.2889 27.2915 34.0691 27.2915C32.9623 27.2915 32.0813 27.5513 31.4263 28.0708C30.7938 28.5678 30.4776 29.268 30.4776 30.1715C30.4776 31.0977 30.7938 31.8092 31.4263 32.3061C32.0587 32.7805 32.9284 33.0177 34.0352 33.0177ZM45.7945 21.0572C45.7945 20.2666 46.0882 19.6115 46.6754 19.092C47.2627 18.5725 48.1437 18.3127 49.3183 18.3127V20.1762C49.0246 20.5377 48.81 20.8313 48.6745 21.0572L48.81 21.1927C49.5103 20.2666 50.3009 19.5551 51.1818 19.0581C52.0627 18.5612 53.147 18.3127 54.4345 18.3127C56.3319 18.3127 57.8679 18.8661 59.0425 19.973C60.2397 21.0798 60.8383 22.5367 60.8383 24.3438V29.8327C60.8383 31.0299 60.5446 32.0915 59.9573 33.0177C59.37 33.9212 58.5569 34.6214 57.5178 35.1184C56.5013 35.6153 55.338 35.8638 54.0279 35.8638C53.1244 35.8638 52.2209 35.6718 51.3173 35.2878C50.4138 34.9038 49.6458 34.3955 49.0133 33.7631L48.9117 33.9325C49.0472 34.1132 49.2844 34.3504 49.6232 34.644V39.9635C49.6232 41.748 48.347 42.6402 45.7945 42.6402V21.0572ZM53.3164 32.5433C54.5136 32.5433 55.4284 32.2948 56.0609 31.7979C56.7159 31.2784 57.0434 30.5555 57.0434 29.6294V24.581C57.0434 23.6097 56.7159 22.8755 56.0609 22.3786C55.4284 21.8591 54.5136 21.5993 53.3164 21.5993C52.2322 21.5993 51.3399 21.8704 50.6397 22.4125C49.9394 22.9546 49.5893 23.621 49.5893 24.4115V29.765C49.5893 30.5555 49.9282 31.2219 50.6058 31.764C51.2834 32.2835 52.187 32.5433 53.3164 32.5433ZM72.8228 21.5993C71.5127 21.5993 70.4398 21.972 69.604 22.7174C68.7682 23.4403 68.3504 24.3325 68.3504 25.3941V33.4242C68.3504 34.2826 68.0341 34.9038 67.4017 35.2878C66.7918 35.6718 65.8431 35.8638 64.5555 35.8638V21.3282C64.5555 19.3179 65.764 18.3127 68.1809 18.3127V20.3457C67.8647 20.7071 67.6049 21.0685 67.4017 21.4299L67.5711 21.5654C69.0393 19.397 70.8351 18.3127 72.9584 18.3127C73.8619 18.3127 74.5508 18.5499 75.0252 19.0242C75.4995 19.476 75.7367 20.052 75.7367 20.7523C75.7367 21.2718 75.6012 21.7348 75.3301 22.1414C74.6751 21.78 73.8393 21.5993 72.8228 21.5993ZM118.503 35.8638C116.741 35.8638 115.431 35.3555 114.572 34.3391C113.736 33.3226 113.319 32.0125 113.319 30.4087V21.4977H109.93C109.93 20.5264 110.122 19.8035 110.506 19.3292C110.89 18.8548 111.41 18.6177 112.065 18.6177H113.352V15.6699C113.352 14.8115 113.657 14.1904 114.267 13.8064C114.9 13.4224 115.837 13.2304 117.08 13.2304V18.6177H121.586C121.586 19.6341 121.383 20.3682 120.976 20.82C120.569 21.2718 119.926 21.4977 119.045 21.4977H117.113V30.2732C117.113 31.0864 117.272 31.6737 117.588 32.0351C117.904 32.3739 118.457 32.5433 119.248 32.5433C120.039 32.5433 120.818 32.3287 121.586 31.8995C121.789 32.0802 121.936 32.3061 122.026 32.5772C122.139 32.8482 122.196 33.1306 122.196 33.4242C122.196 34.0567 121.868 34.6214 121.213 35.1184C120.558 35.6153 119.655 35.8638 118.503 35.8638Z"
        fill="black" fill-opacity="0.5" />
    <path
        d="M83.5439 35.8638C82.0983 35.8638 80.7882 35.604 79.6136 35.0845C78.4616 34.5424 77.5468 33.8082 76.8691 32.8821C76.2141 31.956 75.8865 30.9057 75.8865 29.7311V24.7165C75.8865 23.5193 76.2141 22.4351 76.8691 21.4638C77.5242 20.4925 78.4277 19.7245 79.5797 19.1598C80.7543 18.5951 82.0757 18.3127 83.5439 18.3127C85.0122 18.3127 86.3223 18.5951 87.4743 19.1598C88.6489 19.7245 89.5637 20.4925 90.2188 21.4638C90.8738 22.4351 91.2014 23.5193 91.2014 24.7165V29.7311C91.2014 30.9057 90.8625 31.956 90.1849 32.8821C89.5298 33.8082 88.615 34.5424 87.4404 35.0845C86.2884 35.604 84.9896 35.8638 83.5439 35.8638ZM83.5439 32.5772C84.7411 32.5772 85.6898 32.3061 86.3901 31.764C87.0903 31.1993 87.4404 30.4426 87.4404 29.4939V24.8859C87.4404 23.892 87.0903 23.0901 86.3901 22.4803C85.6898 21.8704 84.7411 21.5654 83.5439 21.5654C82.3468 21.5654 81.3981 21.8704 80.6978 22.4803C79.9976 23.0901 79.6475 23.892 79.6475 24.8859V29.4939C79.6475 30.4426 79.9976 31.1993 80.6978 31.764C81.3981 32.3061 82.3468 32.5772 83.5439 32.5772ZM100.915 35.8638C99.4696 35.8638 98.1595 35.604 96.9849 35.0845C95.8329 34.5424 94.9181 33.8082 94.2404 32.8821C93.5854 31.956 93.2579 30.9057 93.2579 29.7311V24.7165C93.2579 23.5193 93.5854 22.4351 94.2404 21.4638C94.8955 20.4925 95.799 19.7245 96.951 19.1598C98.1256 18.5951 99.447 18.3127 100.915 18.3127C102.384 18.3127 103.694 18.5951 104.846 19.1598C106.02 19.7245 106.935 20.4925 107.59 21.4638C108.245 22.4351 108.573 23.5193 108.573 24.7165V29.7311C108.573 30.9057 108.234 31.956 107.556 32.8821C106.901 33.8082 105.986 34.5424 104.812 35.0845C103.66 35.604 102.361 35.8638 100.915 35.8638ZM100.915 32.5772C102.112 32.5772 103.061 32.3061 103.761 31.764C104.462 31.1993 104.812 30.4426 104.812 29.4939V24.8859C104.812 23.892 104.462 23.0901 103.761 22.4803C103.061 21.8704 102.112 21.5654 100.915 21.5654C99.7181 21.5654 98.7694 21.8704 98.0692 22.4803C97.3689 23.0901 97.0188 23.892 97.0188 24.8859V29.4939C97.0188 30.4426 97.3689 31.1993 98.0692 31.764C98.7694 32.3061 99.7181 32.5772 100.915 32.5772Z"
        fill="#FFA500" />
    <path
        d="M111.43 1.35059C111.483 1.16268 111.494 1.0401 111.479 0.853148C106.743 1.20761 100.369 3.60978 96.4848 7.88791C94.3092 10.2842 92.5975 13.6722 92.1852 17.1354C92.2072 17.1721 92.2301 17.2072 92.2558 17.2399C92.7364 17.8484 95.0857 17.7394 95.8137 17.693C100.311 17.4047 104.347 13.1402 107.304 8.7222C107.801 7.98008 108.341 7.23531 108.779 6.44054C109.299 5.49562 110.991 1.86509 111.402 1.38271C111.411 1.37186 111.421 1.36144 111.43 1.35059ZM92.8757 16.2238C93.4288 14.0556 97.9275 9.82137 99.5424 8.52426C100.781 7.52893 104.617 4.97849 106.01 4.78548L106.129 4.887C102.535 6.96192 99.1272 9.22882 96.022 12.5381C95.3257 13.2802 94.6295 14.0324 94.0037 14.8731C93.7706 15.1862 93.3857 15.9366 93.1352 16.1427C93.0781 16.1896 92.9356 16.2346 92.8757 16.2238Z"
        fill="#31B452" />
    <path
        d="M81.7723 8.15427C81.7484 8.04497 81.5175 7.72821 81.5304 7.61946C84.096 7.82481 87.7286 9.46644 89.7315 11.9543C90.8534 13.3477 91.6978 15.3182 91.8339 17.3325C91.821 17.3539 91.8076 17.3744 91.7929 17.3933C91.5161 17.7474 90.2416 17.6844 89.847 17.6575C87.4094 17.4907 85.3233 15.0108 83.8282 12.4415C83.5771 12.0099 83.3023 11.5767 83.0845 11.1145C82.8254 10.565 81.9978 8.45346 81.7867 8.17295C81.782 8.16664 81.7771 8.16058 81.7723 8.15427ZM91.4817 16.8024C91.2361 15.5413 88.898 13.0792 88.0529 12.3249C87.4047 11.7462 85.384 10.2633 84.6318 10.1513L83.7606 9.61855C85.6615 10.8249 88.1812 12.8915 89.7853 14.8158C90.1449 15.2474 90.2288 15.3203 90.5477 15.8092C90.6664 15.9913 91.2117 16.6355 91.3426 16.7553C91.3725 16.7826 91.4488 16.8087 91.4817 16.8024Z"
        fill="#31B452" />
</svg>