<svg width="40" height="41" viewBox="0 0 40 41" fill="none" xmlns="http://www.w3.org/2000/svg">
    <path
        d="M20.044 40.0118H19.956C8.95238 40.0118 0 31.0568 0 20.0499V19.9619C0 8.95501 8.95238 0 19.956 0H20.044C31.0476 0 40 8.95501 40 19.9619V20.0499C40 31.0568 31.0476 40.0118 20.044 40.0118ZM19.956 1.35436C9.69841 1.35436 1.35396 9.70126 1.35396 19.9619V20.0499C1.35396 30.3105 9.69841 38.6574 19.956 38.6574H20.044C30.3016 38.6574 38.646 30.3105 38.646 20.0499V19.9619C38.646 9.70126 30.3016 1.35436 20.044 1.35436H19.956Z"
        fill="#FF0000" />
    <path fill-rule="evenodd" clip-rule="evenodd"
        d="M18.2376 25.2906C18.2146 25.3705 18.193 25.4382 18.1754 25.5059C17.1531 29.5121 17.0394 30.4019 15.9887 32.2628C15.4877 33.1472 14.9231 33.9855 14.299 34.7873C14.2286 34.878 14.1622 34.9945 14.0214 34.9661C13.8671 34.9336 13.8549 34.7941 13.8386 34.6708C13.6707 33.4533 13.5773 32.233 13.6179 31.0032C13.6707 29.4024 13.8684 28.8525 15.9318 20.1738C15.9616 20.0411 15.9278 19.9314 15.8845 19.8122C15.3903 18.4795 15.2928 17.1265 15.7247 15.7559C16.6589 12.7953 20.014 12.5691 20.6003 15.011C20.9618 16.5211 20.0059 18.4985 19.2721 21.4212C18.6641 23.8319 21.502 25.5465 23.927 23.7859C26.1637 22.1633 27.0316 18.2736 26.8664 15.5162C26.5415 10.0188 20.515 8.83105 16.6928 10.6012C12.31 12.6287 11.3135 18.0624 13.293 20.5462C13.5435 20.8618 14.016 21.0555 13.9334 21.3751C13.8061 21.8721 13.6937 22.3733 13.5556 22.8676C13.4527 23.236 12.8665 23.3701 12.4941 23.2184C11.7644 22.9231 11.1564 22.4586 10.6636 21.8464C8.98333 19.7648 8.50268 15.6475 10.7245 12.1614C13.186 8.30014 17.7651 6.73721 21.9461 7.21123C26.9395 7.77871 30.0956 11.1917 30.6859 15.0638C30.9554 16.8272 30.7618 21.176 28.2867 24.2504C25.4393 27.7826 20.8237 28.0169 18.6939 25.8485C18.5301 25.682 18.3988 25.4883 18.2376 25.2892V25.2906Z"
        fill="#FF0000" />
</svg>