<svg width="16" height="16" viewBox="0 0 16 16" fill="none" xmlns="http://www.w3.org/2000/svg">
    <path
        d="M3.33427 13.9991H12.6676M7.70893 2.17647C7.73771 2.12421 7.77998 2.08062 7.83134 2.05027C7.88271 2.01992 7.94127 2.00391 8.00093 2.00391C8.06059 2.00391 8.11916 2.01992 8.17052 2.05027C8.22188 2.08062 8.26416 2.12421 8.29293 2.17647L10.2609 5.91247C10.3079 5.99898 10.3734 6.07402 10.4527 6.13221C10.5321 6.19041 10.6234 6.2303 10.72 6.24904C10.8166 6.26778 10.9162 6.26489 11.0116 6.24059C11.1069 6.21628 11.1957 6.17116 11.2716 6.10847L14.1229 3.6658C14.1777 3.62128 14.2451 3.59528 14.3156 3.59154C14.386 3.58779 14.4559 3.6065 14.515 3.64497C14.5741 3.68343 14.6196 3.73968 14.6447 3.8056C14.6699 3.87152 14.6734 3.94372 14.6549 4.0118L12.7656 10.8425C12.727 10.9822 12.6439 11.1056 12.5289 11.1939C12.4139 11.2822 12.2733 11.3306 12.1283 11.3318H3.87427C3.72916 11.3308 3.58834 11.2825 3.47319 11.1941C3.35805 11.1058 3.27486 10.9824 3.23627 10.8425L1.3476 4.01247C1.3291 3.94438 1.33268 3.87218 1.35783 3.80626C1.38297 3.74034 1.42839 3.6841 1.48753 3.64563C1.54668 3.60717 1.61651 3.58846 1.68696 3.5922C1.75742 3.59595 1.82487 3.62195 1.8796 3.66647L4.73027 6.10914C4.80613 6.17183 4.89494 6.21695 4.99031 6.24125C5.08568 6.26556 5.18525 6.26845 5.28187 6.24971C5.37849 6.23097 5.46976 6.19107 5.54913 6.13288C5.6285 6.07469 5.694 5.99964 5.74093 5.91314L7.70893 2.17647Z"
        stroke="url(#paint0_linear_245_5124)" stroke-linecap="round" stroke-linejoin="round" />
    <defs>
        <linearGradient id="paint0_linear_245_5124" x1="8.00127" y1="2.00391" x2="8.00127"
            y2="13.9991" gradientUnits="userSpaceOnUse">
            <stop stop-color="#27AE60" />
            <stop offset="0.9755" stop-color="#005624" />
        </linearGradient>
    </defs>
</svg>