<svg width="40" height="41" viewBox="0 0 40 41" fill="none" xmlns="http://www.w3.org/2000/svg">
    <path
        d="M20.044 40.0118H19.956C8.95236 40.0118 0 31.0568 0 20.0499V19.9619C0 8.95501 8.95236 0 19.956 0H20.044C31.0476 0 40 8.95501 40 19.9619V20.0499C40 31.0568 31.0476 40.0118 20.044 40.0118ZM19.956 1.35436C9.69839 1.35436 1.35396 9.70126 1.35396 19.9619V20.0499C1.35396 30.3105 9.69839 38.6574 19.956 38.6574H20.044C30.3016 38.6574 38.646 30.3105 38.646 20.0499V19.9619C38.646 9.70126 30.3016 1.35436 20.044 1.35436H19.956Z"
        fill="url(#paint0_linear_2298_17314)" />
    <path
        d="M26.2585 18.6993C29.7233 20.1579 31.4279 23.6495 30.2974 27.2629C29.527 29.7292 27.3322 31.7214 24.9804 32.6221C22.0152 33.7611 18.0332 33.688 15.1086 32.4745C9.17695 30.0163 7.79321 23.1903 8.38218 17.5115C8.79243 13.5365 10.447 9.66167 14.0999 7.66941C16.8525 6.16201 20.3756 5.94803 23.3895 6.57916C26.5185 7.23467 29.0585 9.08607 30.5979 11.8896C31.0732 12.7496 31.4577 13.7004 31.7447 14.7581C31.7529 14.7988 31.7366 14.8407 31.696 14.8489L29.5175 15.4231C29.4769 15.4312 29.4349 15.4069 29.4268 15.3743C29.0991 14.1283 28.5832 13.0218 27.8697 12.0562C25.6411 9.02377 21.5535 8.21251 18.0305 8.84364C13.8765 9.58989 11.5829 12.5072 10.9114 16.5134C10.363 19.7665 10.535 23.5357 12.0338 26.5356C13.2957 29.0601 15.5812 30.4768 18.3338 30.8709C19.8164 31.0754 21.2665 31.051 22.6841 30.7883C24.7164 30.4118 26.8949 29.0669 27.779 27.141C28.3531 25.895 28.4099 24.3145 27.779 23.0766C27.4188 22.3723 26.8773 21.8062 26.1651 21.3809C26.1326 21.3565 26.0825 21.3728 26.0663 21.4053C26.0581 21.4134 26.0581 21.4216 26.0581 21.4297C25.9755 22.0364 25.8374 22.6337 25.6316 23.2161C25.3365 24.0436 24.9113 24.7573 24.3454 25.3384C22.4444 27.2968 19.1353 27.4688 16.8986 26.0589C15.1127 24.928 14.4412 22.6175 15.2928 20.7159C16.1769 18.7494 18.3405 17.8975 20.3959 17.7987C21.5589 17.7418 22.6326 17.7905 23.6237 17.93C23.6643 17.9381 23.6968 17.9056 23.7063 17.865V17.8406C23.6156 17.3896 23.51 17.0213 23.3786 16.7341C22.6908 15.2186 21.1419 14.8164 19.5943 15.0127C18.6032 15.136 17.8247 15.6032 17.2425 16.4064C17.2181 16.4389 17.1775 16.447 17.1436 16.4226L15.2928 15.1604C15.2603 15.136 15.2522 15.0954 15.2766 15.0534C16.2677 13.6597 17.6108 12.8485 19.3154 12.6277C20.7249 12.4395 22.305 12.6602 23.5344 13.4065C25.3771 14.5374 26.0324 16.5703 26.1962 18.6262C26.2125 18.6668 26.2287 18.6912 26.2531 18.6993H26.2585ZM17.4185 21.9119C17.0502 23.1497 17.9019 24.1248 19.0568 24.4187C20.6788 24.8291 22.481 24.4675 23.2514 22.8044C23.5547 22.1488 23.7347 21.3782 23.7916 20.5019C23.7916 20.4613 23.7672 20.4288 23.7347 20.4288C22.5311 20.1918 21.2935 20.1417 20.0316 20.2649C19.0081 20.3719 17.738 20.8392 17.4185 21.9119Z"
        fill="url(#paint1_linear_2298_17314)" />
    <defs>
        <linearGradient id="paint0_linear_2298_17314" x1="0" y1="20.0066" x2="40.0014" y2="20.0066"
            gradientUnits="userSpaceOnUse">
            <stop stop-color="#FAAD4F" />
            <stop offset="0.35" stop-color="#DD2A7B" />
            <stop offset="0.62" stop-color="#9537B0" />
            <stop offset="1" stop-color="#515BD4" />
        </linearGradient>
        <linearGradient id="paint1_linear_2298_17314" x1="8.25897" y1="19.8383" x2="31.7502"
            y2="19.8383" gradientUnits="userSpaceOnUse">
            <stop stop-color="#FAAD4F" />
            <stop offset="0.35" stop-color="#DD2A7B" />
            <stop offset="0.62" stop-color="#9537B0" />
            <stop offset="1" stop-color="#515BD4" />
        </linearGradient>
    </defs>
</svg>