<svg width="40" height="41" viewBox="0 0 40 41" fill="none" xmlns="http://www.w3.org/2000/svg">
    <path
        d="M20.044 40.0118H19.956C8.95238 40.0118 0 31.0568 0 20.0499V19.9619C0 8.95502 8.95238 0 19.956 0H20.044C31.0476 0 40 8.95502 40 19.9619V20.0499C40 31.0568 31.0476 40.0118 20.044 40.0118ZM19.956 1.35436C9.69841 1.35436 1.35396 9.70127 1.35396 19.9619V20.0499C1.35396 30.3105 9.69841 38.6574 19.956 38.6574H20.044C30.3016 38.6574 38.646 30.3105 38.646 20.0499V19.9619C38.646 9.70127 30.3016 1.35436 20.044 1.35436H19.956Z"
        fill="#383D38" />
    <path
        d="M8.51645 9.42773L17.4282 21.3461L8.46094 31.0365H10.4797L18.3313 22.5528L24.6746 31.0365H31.5432L22.1305 18.4478L30.4777 9.42773H28.4589L21.2288 17.241L15.3864 9.42773H8.51779H8.51645ZM11.4843 10.9148H14.6391L28.5726 29.5494H25.4179L11.4843 10.9148Z"
        fill="#383D38" />
</svg>