<svg width="24" height="25" viewBox="0 0 24 25" fill="none" xmlns="http://www.w3.org/2000/svg">
    <path
        d="M12.0264 24.5032H11.9736C5.37143 24.5032 0 19.1301 0 12.526V12.4732C0 5.8691 5.37143 0.496094 11.9736 0.496094H12.0264C18.6286 0.496094 24 5.8691 24 12.4732V12.526C24 19.1301 18.6286 24.5032 12.0264 24.5032ZM11.9736 1.30871C5.81904 1.30871 0.812375 6.31685 0.812375 12.4732V12.526C0.812375 18.6824 5.81904 23.6905 11.9736 23.6905H12.0264C18.181 23.6905 23.1876 18.6824 23.1876 12.526V12.4732C23.1876 6.31685 18.181 1.30871 12.0264 1.30871H11.9736Z"
        fill="#00E510" />
    <path
        d="M14.25 15.8933C11.2824 15.8933 8.868 13.4774 8.86719 10.5089C8.868 9.75642 9.48053 9.14453 10.2312 9.14453C10.3083 9.14453 10.3847 9.15103 10.4578 9.16403C10.6187 9.19085 10.7714 9.2453 10.9119 9.32737C10.9322 9.33956 10.9461 9.35906 10.9493 9.38181L11.2629 11.3589C11.2669 11.3817 11.2596 11.4052 11.2442 11.4223C11.0712 11.6141 10.8502 11.7522 10.604 11.8213L10.4854 11.8546L10.5301 11.9692C10.9347 12.9996 11.7584 13.8227 12.7893 14.2291L12.9039 14.2746L12.9372 14.1559C13.0062 13.9097 13.1443 13.6887 13.3361 13.5156C13.3499 13.5026 13.3686 13.4961 13.3872 13.4961C13.3913 13.4961 13.3954 13.4961 13.4002 13.4969L15.3767 13.8106C15.4003 13.8146 15.4198 13.8276 15.432 13.8479C15.5132 13.9885 15.5677 14.1421 15.5953 14.303C15.6083 14.3745 15.614 14.4501 15.614 14.5289C15.614 15.2806 15.0022 15.8925 14.25 15.8933Z"
        fill="#00E510" />
    <path
        d="M19.5136 11.8506C19.3535 10.0417 18.5249 8.3637 17.1804 7.12608C15.8278 5.88116 14.0731 5.19531 12.2379 5.19531C8.21017 5.19531 4.93306 8.4734 4.93306 12.5023C4.93306 13.8545 5.30593 15.1718 6.01188 16.3192L4.4375 19.8053L9.47829 19.2682C10.3548 19.6273 11.2826 19.8094 12.2371 19.8094C12.4881 19.8094 12.7457 19.7964 13.004 19.7696C13.2315 19.7452 13.4614 19.7094 13.6872 19.6639C17.0602 18.9821 19.5225 15.9876 19.542 12.5413V12.5023C19.542 12.2829 19.5322 12.0635 19.5127 11.8514L19.5136 11.8506ZM9.67245 17.738L6.88357 18.0354L7.71625 16.19L7.54971 15.9665C7.53753 15.9503 7.52534 15.934 7.51153 15.9153C6.78852 14.9166 6.4067 13.7367 6.4067 12.5032C6.4067 9.28683 9.02255 6.67021 12.2379 6.67021C15.2502 6.67021 17.8035 9.0211 18.0497 12.0221C18.0627 12.183 18.07 12.3447 18.07 12.504C18.07 12.5495 18.0692 12.5942 18.0683 12.6421C18.0066 15.3327 16.1276 17.6177 13.4987 18.1996C13.2981 18.2443 13.0925 18.2784 12.8878 18.3003C12.675 18.3247 12.4565 18.3369 12.2396 18.3369C11.467 18.3369 10.7164 18.1874 10.0071 17.8916C9.92835 17.8599 9.85117 17.8258 9.77887 17.7908L9.67326 17.7396L9.67245 17.738Z"
        fill="#00E510" />
</svg>