<svg width="40" height="41" viewBox="0 0 40 41" fill="none" xmlns="http://www.w3.org/2000/svg">
    <path
        d="M20 40.0235C8.97157 40.0235 0 31.0493 0 20.0176C0 8.98591 8.97157 0.0117188 20 0.0117188C31.0285 0.0117188 40 8.98591 40 20.0176C40 31.0493 31.0285 40.0235 20 40.0235ZM20 1.3698C9.72101 1.3698 1.35768 9.73557 1.35768 20.0176C1.35768 30.2996 9.72101 38.6654 20 38.6654C30.279 38.6654 38.6423 30.2996 38.6423 20.0176C38.6423 9.73557 30.279 1.3698 20 1.3698Z"
        fill="#FF0209" />
    <path
        d="M32.1657 16.0131C32.0137 14.5451 31.6865 12.9221 30.4822 12.0693C29.5495 11.4079 28.3235 11.3835 27.179 11.3848C24.7596 11.3862 22.3388 11.3889 19.9194 11.3902C17.5924 11.3929 15.2653 11.3943 12.9382 11.397C11.9661 11.3984 11.0212 11.3223 10.1183 11.7433C9.3431 12.1046 8.73621 12.7918 8.371 13.5564C7.86458 14.6198 7.75869 15.8244 7.69759 17.0005C7.58491 19.1422 7.59712 21.2893 7.73153 23.4296C7.83065 24.9914 8.08181 26.7176 9.28879 27.713C10.3586 28.5944 11.8684 28.6379 13.2559 28.6392C17.6603 28.6433 22.0659 28.6474 26.4716 28.6501C27.0364 28.6515 27.6256 28.6406 28.2013 28.5781C29.3336 28.4559 30.413 28.1313 31.1407 27.292C31.8752 26.4459 32.0639 25.2685 32.1752 24.1535C32.4468 21.4482 32.4441 18.7171 32.1657 16.0131ZM17.3724 23.8099V16.225L23.9382 20.0168L17.3724 23.8099Z"
        fill="#FF0209" />
</svg>